<svg width="200" height="200" viewBox="0 0 200 200" fill="none" xmlns="http://www.w3.org/2000/svg">
  <g>
    <rect width="200" height="200" fill="white"/>
    <g>
      <path d="M100 30v-20M100 190v-20M30 100h-20M190 100h-20M50 50l-14.14-14.14M164.14 164.14l-14.14-14.14M50 150l-14.14 14.14M164.14 35.86l-14.14 14.14" stroke="#FFD600" stroke-width="8" stroke-linecap="round"/>
      <rect x="60" y="60" width="80" height="80" rx="16" fill="url(#paint0_linear)"/>
      <g>
        <path d="M100 85l20 10v20l-20 10-20-10v-20l20-10z" fill="#fff" stroke="#FFD600" stroke-width="4"/>
        <path d="M100 95v20" stroke="#FFD600" stroke-width="3"/>
        <path d="M110 100l-10 5-10-5" stroke="#FFD600" stroke-width="3"/>
      </g>
      <path d="M100 110a10 10 0 1 0 0-20 10 10 0 0 0 0 20z" fill="#FFD600"/>
      <path d="M100 100l7-7M100 100l-7-7" stroke="#fff" stroke-width="2"/>
      <path d="M100 100l7 7M100 100l-7 7" stroke="#fff" stroke-width="2"/>
      <path d="M100 100m-10 0a10 10 0 1 0 20 0a10 10 0 1 0 -20 0" stroke="#FFD600" stroke-width="2" fill="none"/>
      <g>
        <path d="M100 120l-10 5v-10l10-5 10 5v10l-10-5z" fill="#fff" stroke="#FFD600" stroke-width="2"/>
      </g>
      <g>
        <path d="M100 80l-10-5v10l10 5 10-5v-10l-10 5z" fill="#fff" stroke="#FFD600" stroke-width="2"/>
      </g>
      <g>
        <path d="M100 100l-10-5v10l10 5 10-5v-10l-10 5z" fill="#fff" stroke="#FFD600" stroke-width="2"/>
      </g>
      <g>
        <path d="M100 100l-10 5v-10l10-5 10 5v10l-10-5z" fill="#fff" stroke="#FFD600" stroke-width="2"/>
      </g>
      <g>
        <path d="M100 100l-10-5v10l10 5 10-5v-10l-10 5z" fill="#fff" stroke="#FFD600" stroke-width="2"/>
      </g>
      <g>
        <path d="M100 100l-10 5v-10l10-5 10 5v10l-10-5z" fill="#fff" stroke="#FFD600" stroke-width="2"/>
      </g>
      <g>
        <path d="M100 100l-10-5v10l10 5 10-5v-10l-10 5z" fill="#fff" stroke="#FFD600" stroke-width="2"/>
      </g>
      <g>
        <path d="M100 100l-10 5v-10l10-5 10 5v10l-10-5z" fill="#fff" stroke="#FFD600" stroke-width="2"/>
      </g>
      <g>
        <path d="M100 100l-10-5v10l10 5 10-5v-10l-10 5z" fill="#fff" stroke="#FFD600" stroke-width="2"/>
      </g>
      <g>
        <path d="M100 100l-10 5v-10l10-5 10 5v10l-10-5z" fill="#fff" stroke="#FFD600" stroke-width="2"/>
      </g>
    </g>
  </g>
  <defs>
    <linearGradient id="paint0_linear" x1="60" y1="60" x2="140" y2="140" gradientUnits="userSpaceOnUse">
      <stop stop-color="#FFD600"/>
      <stop offset="1" stop-color="#FFEA70"/>
    </linearGradient>
  </defs>
</svg>
